<svg width="30" height="30" viewBox="0 0 30 30" fill="none" xmlns="http://www.w3.org/2000/svg">
<path d="M15.6 13.65V17.75H25.4C25.1 20.05 24.3338 21.7337 23.1663 22.9163C21.7325 24.35 19.5 25.9163 15.6 25.9163C9.56626 25.9163 4.85001 21.05 4.85001 15.0162C4.85001 8.9825 9.56626 4.11625 15.6 4.11625C18.85 4.11625 21.2338 5.4 22.9838 7.05L25.8675 4.16625C23.4338 1.8 20.1663 0 15.6 0C7.33376 0 0.383759 6.73375 0.383759 15C0.383759 23.2663 7.33376 30 15.6 30C20.0663 30 23.4338 28.5337 26.0663 25.8C28.7663 23.1 29.6163 19.2837 29.6163 16.2162C29.6163 15.2662 29.55 14.3825 29.4 13.65H15.6Z" fill="white"/>
</svg>
